<?xml version="1.0" encoding="utf-8"?>
<!-- Generator: Adobe Illustrator 24.2.1, SVG Export Plug-In . SVG Version: 6.00 Build 0)  -->
<svg version="1.1" id="Layer_1" xmlns="http://www.w3.org/2000/svg" xmlns:xlink="http://www.w3.org/1999/xlink" x="0px" y="0px"
	 viewBox="0 0 24 24" style="enable-background:new 0 0 24 24;" xml:space="preserve">
<path d="M17,13H7v-2h10V13z M14,7H7v2h7V7z M11,15H7v2h4V15z M21,3.9v16.2c-0.1,0.5-0.4,0.8-0.9,0.9H3.9C3.4,21,3,20.6,3,20.1V3.9
	C3,3.4,3.4,3,3.9,3c0,0,0,0,0,0h16.2C20.6,3,21,3.4,21,3.9z M19,5H5v14h14V5z"/>
</svg>
