<?xml version="1.0" encoding="utf-8"?>
<!-- Generator: Adobe Illustrator 24.2.1, SVG Export Plug-In . SVG Version: 6.00 Build 0)  -->
<svg version="1.1" id="Layer_1" xmlns="http://www.w3.org/2000/svg" xmlns:xlink="http://www.w3.org/1999/xlink" x="0px" y="0px"
	 viewBox="0 0 24 24" style="enable-background:new 0 0 24 24;" xml:space="preserve">
<path d="M13,3c-5,0-9,4-9,9H1l3.9,3.9L5,16l4-4H6c0-3.9,3.1-7,7-7.1c3.9,0,7,3.1,7.1,7c0,3.9-3.1,7-7,7.1c-1.9,0-3.7-0.7-5-2.1
	l-1.4,1.4c3.5,3.5,9.2,3.5,12.7,0c3.5-3.5,3.5-9.2,0-12.7C17.7,3.9,15.4,3,13,3z M12,8v5l4.3,2.5l0.8-1.3l-3.5-2.1V8H12z"/>
</svg>
