<?xml version="1.0" encoding="utf-8"?>
<!-- Generator: Adobe Illustrator 24.2.1, SVG Export Plug-In . SVG Version: 6.00 Build 0)  -->
<svg version="1.1" id="Layer_1" xmlns="http://www.w3.org/2000/svg" xmlns:xlink="http://www.w3.org/1999/xlink" x="0px" y="0px"
	 viewBox="0 0 24 24" style="enable-background:new 0 0 24 24;" xml:space="preserve">
<path d="M21,10.1h-6.8L17,7.3c-2.7-2.7-7.1-2.8-9.9-0.1c-2.7,2.7-2.7,7-0.1,9.7c0,0,0,0,0.1,0.1c2.7,2.7,7.1,2.7,9.9,0
	c1.3-1.3,2.1-3,2-4.9h2c-0.1,2.4-1,4.6-2.6,6.3c-3.5,3.5-9.2,3.5-12.8,0C2.1,15,2.1,9.4,5.5,5.9c0,0,0.1-0.1,0.1-0.1
	c3.5-3.5,9.1-3.5,12.7,0L21,3V10.1z M12.5,8v4.2l3.5,2.1l-0.8,1.2L11,13V8H12.5z"/>
</svg>
